<?xml version="1.0" encoding="UTF-8"?>
<svg width="199px" height="68px" viewBox="0 0 199 68" version="1.1" xmlns="http://www.w3.org/2000/svg" xmlns:xlink="http://www.w3.org/1999/xlink">
    <!-- Generator: Sketch 50.2 (55047) - http://www.bohemiancoding.com/sketch -->
    <title>logo</title>
    <desc>Created with Sketch.</desc>
    <defs></defs>
    <g id="Page-1" stroke="none" stroke-width="1" fill="none" fill-rule="evenodd">
        <g id="logo" fill-rule="nonzero">
            <path d="M186.6,63.195 C201.833,68.357 -3.809,68.357 11.423,63.195 C-3.808,68.357 -3.808,-1.291 11.425,3.875 C-3.808,-1.291 201.834,-1.291 186.6,3.875 C201.834,-1.291 201.834,68.357 186.6,63.195 Z" id="Tracé_1" fill="#FFFFFF"></path>
            <path d="M7.667,4.262 C9.30844803,3.44698121 11.060349,2.87660269 12.867,2.569 L11.699,4.869 L7.667,4.262 Z" id="Tracé_2" fill="#FFFFFF"></path>
            <path d="M7.836,62.857 C9.53468737,63.6736847 11.3412331,64.2437652 13.201,64.55 L11.526,62.095 L7.836,62.857 Z" id="Tracé_3" fill="#FFFFFF"></path>
            <path d="M190.188,62.857 C188.489308,63.6736719 186.682764,64.2437519 184.823,64.55 L186.499,62.096 L190.188,62.857 Z" id="Tracé_4" fill="#FFFFFF"></path>
            <path d="M190.358,4.262 C188.659323,3.44528989 186.852773,2.87520821 184.993,2.569 L186.668,5.023 L190.358,4.262 Z" id="Tracé_5" fill="#FFFFFF"></path>
            <path d="M175.599,26.637 C175.446239,27.6994043 175.132294,28.7322864 174.668,29.7 C173.763376,31.6088437 172.395924,33.2612667 170.69,34.507 C169.850923,35.1156701 168.941738,35.6212954 167.982,36.013 L173.043,50.264 L164.614,50.264 L160.23,36.724 L156.997,36.724 L154.847,50.332 L147.622,50.332 L152.937,16.583 L167.492,16.583 C168.748327,16.5638794 169.9926,16.8302406 171.131,17.362 C173.31235,18.3857244 174.907662,20.3484773 175.464,22.693 C175.773796,23.9852075 175.819712,25.3266336 175.599,26.637 Z M164.462,30.157 C164.928456,30.1562554 165.389622,30.058164 165.816,29.869 C166.2492,29.6799908 166.649282,29.4227234 167.001,29.107 C167.36472,28.7908431 167.669445,28.4126456 167.901,27.99 C168.135703,27.5707883 168.290654,27.1116978 168.358,26.636 C168.535419,25.7706657 168.318448,24.8712621 167.766,24.182 C167.229135,23.5119437 166.40705,23.1352011 165.549,23.166 L159.117,23.166 L158.017,30.156 L164.462,30.157 Z" id="Tracé_6" fill="#000000"></path>
            <path d="M139.244,36.724 C139.312,36.318 139.396,35.708 139.532,34.896 C139.65,34.084 139.803,33.17 139.955,32.154 C140.107,31.138 140.294,30.038 140.48,28.87 C140.666,27.702 140.869,26.534 141.055,25.4 C141.461,22.709 141.918,19.764 142.443,16.6 L149.636,16.6 C149.060667,20.188 148.536,23.4546667 148.062,26.4 C147.876,27.669 147.673,28.939 147.47,30.191 C147.267,31.443 147.081,32.611 146.895,33.691 C146.726,34.774 146.573,35.705 146.438,36.501 C146.32,37.301 146.238,37.855 146.201,38.16 C145.927605,39.8839703 145.311839,41.5357614 144.39,43.018 C142.483868,46.143776 139.615353,48.5670128 136.215,49.924 C134.516308,50.6140894 132.700514,50.970254 130.867,50.973 C129.16242,50.9925125 127.474675,50.6342678 125.925,49.924 C124.488064,49.2635209 123.207555,48.3057807 122.168,47.114 C121.143995,45.9270173 120.398157,44.5262224 119.985,43.014 C119.540234,41.434309 119.441993,39.7771761 119.697,38.156 C119.765,37.801 119.849,37.225 119.985,36.413 C120.104,35.601 120.256,34.653 120.442,33.586 C120.611,32.503 120.797,31.335 121.017,30.086 C121.217,28.834 121.423,27.564 121.609,26.295 C122.083,23.35 122.591,20.1 123.132,16.58 L130.325,16.58 C129.817,19.8806667 129.343,22.8933333 128.903,25.618 C128.717,26.786 128.514,27.971 128.327,29.138 C128.14,30.305 127.955,31.406 127.802,32.405 C127.649,33.404 127.502,34.284 127.379,35.045 C127.256,35.806 127.179,36.365 127.142,36.704 C126.986428,37.5947767 126.992187,38.50626 127.159,39.395 C127.314632,40.1950943 127.631387,40.9551701 128.09,41.629 C128.521151,42.2719842 129.102173,42.8004973 129.783,43.169 C130.477699,43.5506759 131.25837,43.7485973 132.051,43.744 C132.908167,43.7470378 133.754235,43.5501584 134.522,43.169 C135.328018,42.785458 136.060994,42.2643214 136.688,41.629 C137.346724,40.9689961 137.905612,40.2164006 138.347,39.395 C138.790807,38.5600346 139.093874,37.6575922 139.244,36.724 Z" id="Tracé_7" fill="#000000"></path>
            <path d="M49.167,26.637 C49.0143615,27.6994315 48.700411,28.7323319 48.236,29.7 C47.3317292,31.6087765 45.9646169,33.2612052 44.259,34.507 C43.4199076,35.1156456 42.5107252,35.6212692 41.551,36.013 L46.612,50.264 L38.183,50.264 L33.799,36.724 L30.566,36.724 L28.416,50.332 L21.19,50.332 L26.505,16.583 L41.06,16.583 C42.3163271,16.5638794 43.5605997,16.8302406 44.699,17.362 C46.8803499,18.3857244 48.4756619,20.3484773 49.032,22.693 C49.3417411,23.9852149 49.3876567,25.32663 49.167,26.637 Z M38.03,30.157 C38.4964558,30.1562554 38.9576216,30.058164 39.384,29.869 C39.8171841,29.6799602 40.2172606,29.4226959 40.569,29.107 C40.9326738,28.7907989 41.2373917,28.4126102 41.469,27.99 C41.7037029,27.5707883 41.8586544,27.1116978 41.926,26.636 C42.1034189,25.7706657 41.8864479,24.8712621 41.334,24.182 C40.7971354,23.5119437 39.9750504,23.1352011 39.117,23.166 L32.685,23.166 L31.585,30.156 L38.03,30.157 Z" id="Tracé_8" fill="#000000"></path>
            <polygon id="Tracé_9" fill="#000000" points="61.099 16.583 85.522 16.583 84.473 23.15 75.858 23.15 71.576 50.332 64.383 50.332 68.665 23.15 60.05 23.15"></polygon>
            <path d="M103.887,16.109 C106.053653,16.0805142 108.197312,16.5556655 110.149,17.497 C111.986535,18.369006 113.596996,19.6549782 114.854,21.254 C116.127201,22.887115 117.049149,24.7657378 117.562,26.772 C118.123994,28.9615924 118.210602,31.2461426 117.816,33.472 C117.432625,35.8393332 116.619225,38.1165141 115.416,40.191 C114.233048,42.2733397 112.724664,44.1530799 110.948,45.759 C109.200196,47.3380217 107.204555,48.6187864 105.041,49.55 C102.931675,50.4694562 100.656007,50.9459645 98.355,50.95 C96.1979316,50.9782444 94.0644687,50.4986606 92.127,49.55 C90.2990738,48.6550429 88.6966216,47.3592032 87.439,45.759 C86.1566304,44.1175095 85.2444452,42.2180903 84.765,40.191 C84.2406078,37.9889123 84.1657823,35.7036746 84.545,33.472 C84.9215465,31.1157201 85.7185513,28.8463055 86.898,26.772 C88.0608174,24.7096576 89.5462777,22.8467553 91.298,21.254 C93.0261623,19.6746998 95.0126978,18.4038989 97.171,17.497 C99.2926948,16.5846912 101.57748,16.1124932 103.887,16.109 Z M99.503,43.765 C100.815093,43.7630687 102.112249,43.4864692 103.311,42.953 C104.54891,42.4153853 105.683056,41.6650417 106.662,40.736 C107.675917,39.7882502 108.532919,38.6855217 109.201,37.469 C109.892814,36.2286944 110.362546,34.8770281 110.589,33.475 C110.812026,32.1381844 110.778086,30.7711018 110.489,29.447 C110.236116,28.254405 109.721754,27.1327816 108.983,26.163 C108.273589,25.2352544 107.365795,24.4777913 106.326,23.946 C105.222962,23.3960027 104.004445,23.1176023 102.772,23.134 C101.465375,23.1358454 100.173749,23.4125008 98.981,23.946 C97.750537,24.4879446 96.6226931,25.2379236 95.647,26.163 C94.6327646,27.1169084 93.7758378,28.2252769 93.108,29.447 C92.4159123,30.6993118 91.946285,32.0621782 91.72,33.475 C91.4967076,34.8004139 91.5306587,36.1564212 91.82,37.469 C92.0798521,38.6540889 92.5936643,39.7687134 93.326,40.736 C94.029137,41.6631243 94.9312823,42.4207214 95.966,42.953 C97.0629919,43.5029252 98.2759955,43.7813982 99.503,43.765 Z" id="Tracé_10" fill="#000000"></path>
            <path d="M102.905,22.388 C102.854,22.371 102.805,22.371 102.753,22.354 C96.053,21.186 91.802,28.786 90.553,34.219 C90.090612,37.1772302 90.7029099,40.2032449 92.279,42.749 C93.7060731,44.9947904 96.0074816,46.5412702 98.626,47.014 C101.876,47.606 104.226,46.692 107.055,43.714 C109.351427,41.229732 110.976604,38.2010247 111.777,34.914 C112.470416,32.3907102 112.064682,29.6918692 110.66,27.484 C108.881781,24.795171 106.078706,22.9532019 102.905,22.388 Z" id="Tracé_11" fill="#FFFFFF"></path>
            <path d="M94.307,45.559 C94.307,45.559 93.748,40.905 93.461,39.246 C93.309,38.417 92.561,36.555 90.973,36.893 C90.973,36.893 89.365,37.604 90.279,39.94 L91.955,43.376 L94.307,45.559 Z" id="Tracé_12" fill="#000000"></path>
            <path d="M103.007,47.048 C103.007,47.048 105.089,42.867 105.901,41.378 C106.307,40.633 107.627,39.144 108.981,40.007 C108.981,40.007 110.234,41.207 108.609,43.107 L105.901,45.781 L103.007,47.048 Z" id="Tracé_13" fill="#000000"></path>
            <path d="M100.112,32.679 C99.841,34.202 96.964,35.522 95.153,35.201 C93.342,34.88 93.274,33.035 93.528,31.528 C93.726621,30.3452538 94.5437681,29.3596172 95.6692259,28.9452697 C96.7946836,28.5309223 98.0558728,28.7514005 98.9740053,29.5230038 C99.8921378,30.2946071 100.326426,31.4990168 100.112,32.679 Z" id="Tracé_14" fill="#000000"></path>
            <path d="M109.997,34.405 C110.268,32.882 107.997,30.665 106.172,30.343 C104.361,30.021 103.667,31.731 103.396,33.254 C103.176138,34.4392106 103.609992,35.651159 104.532078,36.4275747 C105.454163,37.2039904 106.722288,37.4251436 107.852753,37.0066804 C108.983218,36.5882171 109.801698,35.594668 109.996,34.405 L109.997,34.405 Z" id="Tracé_15" fill="#000000"></path>
            <path d="M100.993,35.285 C101.365,35.285 101.602,36.085 101.67,36.961 C101.704,37.452 101.907,37.807 101.958,38.755 C101.975,39.094 101.603,40.278 101.146,40.228 C100.858,40.194 100.706,40.093 100.097,39.703 C100.013448,39.6603002 99.9193578,39.6425931 99.826,39.652 C99.572,39.703 99.014,40.007 98.826,39.952 C98.504,39.867 98.2,39.63 98.284,38.752 C98.369,38.061 99.808,35.285 100.993,35.285 Z" id="Tracé_16" fill="#000000"></path>
            <polygon id="Tracé_17" fill="#FFEF04" points="57.783 7.697 55.498 12.504 57.207 12.504 54.059 18.953 52.659 18.953 53.522 14.18 51.622 14.18 52.773 7.698"></polygon>
        </g>
    </g>
</svg>