<svg xmlns="http://www.w3.org/2000/svg" width="198.026" height="67.066" viewBox="0 0 198.026 67.066">
  <g id="Groupe_23" data-name="Groupe 23" transform="translate(-114 -135)">
    <g id="Groupe_3" data-name="Groupe 3" transform="translate(114 135)">
      <g id="Groupe_2" data-name="Groupe 2" transform="translate(0 0)">
        <g id="Groupe_1" data-name="Groupe 1">
          <path id="Tracé_1" data-name="Tracé 1" d="M186.6,64.22c15.233,5.162-190.409,5.162-175.177,0C-3.808,69.382-3.808-.266,11.425,4.9-3.808-.266,201.834-.266,186.6,4.9,201.834-.266,201.834,69.382,186.6,64.22Z" transform="translate(0 -1.025)" fill="#fff"/>
        </g>
        <path id="Tracé_2" data-name="Tracé 2" d="M45.3,17.893A18.781,18.781,0,0,1,50.5,16.2l-1.168,2.3Z" transform="translate(-37.633 -13.632)" fill="#fff"/>
        <path id="Tracé_3" data-name="Tracé 3" d="M46.3,368.662a19.81,19.81,0,0,0,5.365,1.693L49.99,367.9Z" transform="translate(-38.464 -305.805)" fill="#fff"/>
        <path id="Tracé_4" data-name="Tracé 4" d="M1097.365,368.662a19.811,19.811,0,0,1-5.365,1.693l1.676-2.454Z" transform="translate(-907.176 -305.805)" fill="#fff"/>
        <path id="Tracé_5" data-name="Tracé 5" d="M1098.365,17.893A19.808,19.808,0,0,0,1093,16.2l1.675,2.454Z" transform="translate(-908.007 -13.632)" fill="#fff"/>
      </g>
    </g>
    <g id="Groupe_10" data-name="Groupe 10" transform="translate(135.19 142.697)">
      <path id="Tracé_6" data-name="Tracé 6" d="M900.177,109.054a10.553,10.553,0,0,1-.931,3.063,12.672,12.672,0,0,1-3.978,4.807,12.938,12.938,0,0,1-2.708,1.506l5.061,14.251h-8.429l-4.384-13.54h-3.233l-2.15,13.608H872.2L877.515,99H892.07a8.3,8.3,0,0,1,3.639.779,7.905,7.905,0,0,1,4.333,5.331A9.879,9.879,0,0,1,900.177,109.054Zm-11.137,3.52a3.352,3.352,0,0,0,1.354-.288,4.42,4.42,0,0,0,1.185-.762,4.073,4.073,0,0,0,.9-1.117,3.887,3.887,0,0,0,.457-1.354,2.97,2.97,0,0,0-.592-2.454,2.716,2.716,0,0,0-2.217-1.016h-6.432l-1.1,6.99Z" transform="translate(-745.768 -90.114)"/>
      <path id="Tracé_7" data-name="Tracé 7" d="M726.077,119.141c.068-.406.152-1.016.288-1.828.118-.812.271-1.726.423-2.742s.339-2.116.525-3.284.389-2.336.575-3.47c.406-2.691.863-5.636,1.388-8.8h7.193q-.863,5.382-1.574,9.8c-.186,1.269-.389,2.539-.592,3.791s-.389,2.42-.575,3.5c-.169,1.083-.322,2.014-.457,2.81-.118.8-.2,1.354-.237,1.659a13.077,13.077,0,0,1-1.811,4.858,16.921,16.921,0,0,1-8.175,6.906,14.266,14.266,0,0,1-5.348,1.049,11.544,11.544,0,0,1-4.942-1.049,11.183,11.183,0,0,1-3.757-2.81,10.522,10.522,0,0,1-2.183-4.1,11.393,11.393,0,0,1-.288-4.858c.068-.355.152-.931.288-1.743.119-.812.271-1.76.457-2.827.169-1.083.355-2.251.575-3.5.2-1.252.406-2.522.592-3.791.474-2.945.982-6.195,1.523-9.715h7.193q-.762,4.951-1.422,9.038c-.186,1.168-.389,2.353-.576,3.52s-.372,2.268-.525,3.267-.3,1.879-.423,2.64-.2,1.32-.237,1.659a7.548,7.548,0,0,0,.017,2.691,6.01,6.01,0,0,0,.931,2.234,4.775,4.775,0,0,0,1.693,1.54,4.654,4.654,0,0,0,2.268.575,5.513,5.513,0,0,0,2.471-.575,7.679,7.679,0,0,0,2.166-1.54,9.585,9.585,0,0,0,1.659-2.234A8.6,8.6,0,0,0,726.077,119.141Z" transform="translate(-608.023 -90.114)"/>
      <g id="Groupe_9" data-name="Groupe 9" transform="translate(0 8.412)">
        <path id="Tracé_8" data-name="Tracé 8" d="M153.177,109.054a10.545,10.545,0,0,1-.931,3.063,12.67,12.67,0,0,1-3.977,4.807,12.941,12.941,0,0,1-2.708,1.506l5.061,14.251h-8.429l-4.384-13.54h-3.233l-2.15,13.608H125.2L130.515,99H145.07a8.3,8.3,0,0,1,3.639.779,7.905,7.905,0,0,1,4.333,5.331A9.881,9.881,0,0,1,153.177,109.054Zm-11.137,3.52a3.352,3.352,0,0,0,1.354-.288,4.422,4.422,0,0,0,1.185-.762,4.076,4.076,0,0,0,.9-1.117,3.887,3.887,0,0,0,.457-1.354,2.97,2.97,0,0,0-.592-2.454,2.716,2.716,0,0,0-2.217-1.016h-6.432l-1.1,6.99Z" transform="translate(-125.2 -98.526)"/>
        <path id="Tracé_9" data-name="Tracé 9" d="M355.849,99h24.423l-1.049,6.567h-8.615l-4.282,27.182h-7.193l4.282-27.182H354.8Z" transform="translate(-315.94 -98.526)"/>
        <g id="Groupe_8" data-name="Groupe 8" transform="translate(63.116)">
          <path id="Tracé_10" data-name="Tracé 10" d="M517.692,96.2a13.991,13.991,0,0,1,6.262,1.388,13.163,13.163,0,0,1,4.705,3.757,15.028,15.028,0,0,1,2.708,5.518,15.833,15.833,0,0,1,.254,6.7,19.654,19.654,0,0,1-2.4,6.719,22.46,22.46,0,0,1-4.468,5.568,21.478,21.478,0,0,1-5.907,3.791,16.806,16.806,0,0,1-6.686,1.4,13.753,13.753,0,0,1-6.228-1.4,13.529,13.529,0,0,1-4.688-3.791,14.445,14.445,0,0,1-2.674-5.568,16.832,16.832,0,0,1-.22-6.719,19.912,19.912,0,0,1,2.353-6.7,22.184,22.184,0,0,1,4.4-5.518,20.448,20.448,0,0,1,5.873-3.757A17.067,17.067,0,0,1,517.692,96.2Zm-4.384,27.656a9.4,9.4,0,0,0,3.808-.812,11.554,11.554,0,0,0,3.351-2.217,13.111,13.111,0,0,0,2.539-3.267,12.189,12.189,0,0,0,1.388-3.994,10.66,10.66,0,0,0-.1-4.028,8.24,8.24,0,0,0-1.506-3.284,7.837,7.837,0,0,0-2.657-2.217,7.734,7.734,0,0,0-3.554-.812,9.317,9.317,0,0,0-3.791.812,11.7,11.7,0,0,0-3.334,2.217,13.2,13.2,0,0,0-2.539,3.284,12.373,12.373,0,0,0-1.388,4.028,10.472,10.472,0,0,0,.1,3.994,8.389,8.389,0,0,0,1.506,3.267,7.78,7.78,0,0,0,2.64,2.217A7.664,7.664,0,0,0,513.308,123.856Z" transform="translate(-498.111 -96.2)"/>
          <g id="Groupe_7" data-name="Groupe 7" transform="translate(5.692 6.125)">
            <g id="Groupe_4" data-name="Groupe 4">
              <path id="Tracé_11" data-name="Tracé 11" d="M546.418,132.544c-.051-.017-.1-.017-.152-.034-6.7-1.168-10.951,6.432-12.2,11.865a12.529,12.529,0,0,0,1.726,8.53,9.525,9.525,0,0,0,6.347,4.265c3.25.592,5.6-.322,8.429-3.3a19.9,19.9,0,0,0,4.722-8.8,9.267,9.267,0,0,0-1.117-7.43A11.772,11.772,0,0,0,546.418,132.544Z" transform="translate(-533.511 -132.39)" fill="#fff"/>
              <path id="Tracé_12" data-name="Tracé 12" d="M536.049,227.466s-.559-4.654-.846-6.313c-.152-.829-.9-2.691-2.488-2.353,0,0-1.608.711-.694,3.047l1.676,3.436Z" transform="translate(-531.74 -204.141)"/>
              <path id="Tracé_13" data-name="Tracé 13" d="M608.6,243.158s2.082-4.181,2.894-5.67c.406-.745,1.726-2.234,3.08-1.371,0,0,1.253,1.2-.372,3.1l-2.708,2.674Z" transform="translate(-595.591 -218.344)"/>
            </g>
            <g id="Groupe_6" data-name="Groupe 6" transform="translate(3.423 6.529)">
              <g id="Groupe_5" data-name="Groupe 5">
                <path id="Tracé_14" data-name="Tracé 14" d="M558.654,174.882c-.271,1.523-3.148,2.843-4.959,2.522s-1.879-2.166-1.625-3.673a3.342,3.342,0,1,1,6.584,1.151Z" transform="translate(-551.962 -170.966)"/>
                <path id="Tracé_15" data-name="Tracé 15" d="M617.31,184.169c.271-1.523-2-3.74-3.825-4.062-1.811-.322-2.505,1.388-2.776,2.911a3.35,3.35,0,1,0,6.6,1.151Z" transform="translate(-600.734 -178.527)"/>
              </g>
            </g>
            <path id="Tracé_16" data-name="Tracé 16" d="M583.338,209.5c.372,0,.609.8.677,1.676.034.491.237.846.288,1.794.017.339-.355,1.523-.812,1.473-.288-.034-.44-.135-1.049-.525a.488.488,0,0,0-.271-.051c-.254.051-.812.355-1,.3-.322-.085-.626-.322-.542-1.2C580.714,212.276,582.153,209.5,583.338,209.5Z" transform="translate(-572.343 -196.449)"/>
          </g>
        </g>
      </g>
      <path id="Tracé_17" data-name="Tracé 17" d="M311.161,46.5l-2.285,4.807h1.709l-3.148,6.449h-1.4l.863-4.773H305l1.151-6.482Z" transform="translate(-274.568 -46.5)" fill="#ffef04"/>
    </g>
  </g>
</svg>
