<?xml version="1.0" encoding="UTF-8"?>
<svg width="36px" height="36px" viewBox="0 0 36 36" version="1.1" xmlns="http://www.w3.org/2000/svg" xmlns:xlink="http://www.w3.org/1999/xlink">
    <!-- Generator: Sketch 50.2 (55047) - http://www.bohemiancoding.com/sketch -->
    <title>onWayTripGray</title>
    <desc>Created with Sketch.</desc>
    <defs></defs>
    <g id="Page-1" stroke="none" stroke-width="1" fill="none" fill-rule="evenodd">
        <g id="onWayTripGray" fill-rule="nonzero">
            <path d="M17.594,0 C27.3108979,5.94988395e-16 35.188,7.87710211 35.188,17.594 C35.188,27.3108979 27.3108979,35.188 17.594,35.188 C7.87710211,35.188 1.18997679e-15,27.3108979 0,17.594 C-1.18997679e-15,7.87710211 7.87710211,1.78496518e-15 17.594,0 Z" id="Tracé_123" fill="#C3CFD9"></path>
            <path d="M23.1268932,17.5 L20.9804466,15.3535534 C20.5105618,14.8836686 21.2123533,14.1773302 21.6852628,14.6441708 L24.7242628,17.6441708 C24.8369327,17.7553948 24.8818035,17.8951885 24.8729077,18.0293627 C24.8754199,18.1604902 24.8266554,18.2924184 24.7266115,18.3924952 L21.6876115,21.4324952 C21.4923815,21.6277895 21.175799,21.6278416 20.9805048,21.4326115 C20.7852105,21.2373815 20.7851584,20.920799 20.9803885,20.7255048 L23.2051612,18.5 L11,18.5 C10.7238576,18.5 10.5,18.2761424 10.5,18 C10.5,17.7238576 10.7238576,17.5 11,17.5 L23.1268932,17.5 Z" id="Tracé_28" fill="#2D2D2D"></path>
        </g>
    </g>
</svg>