<svg id="noProfile" xmlns="http://www.w3.org/2000/svg" width="37.322" height="38.538" viewBox="0 0 37.322 38.538">
  <path id="Tracé_10" data-name="Tracé 10" d="M519.765,96.2a15.472,15.472,0,0,1,6.925,1.535,14.557,14.557,0,0,1,5.2,4.155,16.619,16.619,0,0,1,2.995,6.1,17.508,17.508,0,0,1,.281,7.412,21.733,21.733,0,0,1-2.658,7.431,24.836,24.836,0,0,1-4.941,6.158,23.751,23.751,0,0,1-6.532,4.193,18.585,18.585,0,0,1-7.393,1.553,15.208,15.208,0,0,1-6.888-1.553,14.961,14.961,0,0,1-5.185-4.193,15.972,15.972,0,0,1-2.957-6.158,18.615,18.615,0,0,1-.243-7.431,22.021,22.021,0,0,1,2.6-7.412,24.532,24.532,0,0,1,4.866-6.1,22.612,22.612,0,0,1,6.495-4.155A18.874,18.874,0,0,1,519.765,96.2Zm-4.848,30.583a10.389,10.389,0,0,0,4.211-.9,12.777,12.777,0,0,0,3.706-2.452,14.5,14.5,0,0,0,2.807-3.612,13.48,13.48,0,0,0,1.535-4.417,11.789,11.789,0,0,0-.112-4.455,9.111,9.111,0,0,0-1.666-3.631,8.667,8.667,0,0,0-2.938-2.452,8.553,8.553,0,0,0-3.931-.9,10.3,10.3,0,0,0-4.193.9,12.942,12.942,0,0,0-3.687,2.452,14.6,14.6,0,0,0-2.807,3.631,13.682,13.682,0,0,0-1.535,4.455,11.581,11.581,0,0,0,.112,4.417,9.277,9.277,0,0,0,1.666,3.612,8.6,8.6,0,0,0,2.92,2.452A8.476,8.476,0,0,0,514.917,126.783Z" transform="translate(-498.111 -96.2)"/>
  <g id="Groupe_7" data-name="Groupe 7" transform="translate(6.294 6.774)">
    <g id="Groupe_4" data-name="Groupe 4">
      <path id="Tracé_11" data-name="Tracé 11" d="M547.746,132.561c-.056-.019-.112-.019-.168-.037-7.412-1.291-12.11,7.112-13.495,13.12a13.855,13.855,0,0,0,1.909,9.433,10.533,10.533,0,0,0,7.019,4.717c3.594.655,6.2-.356,9.321-3.65a22,22,0,0,0,5.222-9.733,10.248,10.248,0,0,0-1.235-8.217A13.018,13.018,0,0,0,547.746,132.561Z" transform="translate(-533.472 -132.39)" fill="#fff"/>
      <path id="Tracé_12" data-name="Tracé 12" d="M536.505,228.388s-.618-5.147-.936-6.981c-.168-.917-.992-2.976-2.751-2.6,0,0-1.778.786-.767,3.369l1.853,3.8Z" transform="translate(-531.74 -202.594)"/>
      <path id="Tracé_13" data-name="Tracé 13" d="M608.6,243.931s2.3-4.623,3.2-6.27c.449-.824,1.909-2.471,3.406-1.516,0,0,1.385,1.329-.412,3.425l-2.995,2.957Z" transform="translate(-594.214 -216.491)"/>
    </g>
    <g id="Groupe_6" data-name="Groupe 6" transform="translate(3.785 7.22)">
      <g id="Groupe_5" data-name="Groupe 5">
        <path id="Tracé_14" data-name="Tracé 14" d="M559.363,175.3c-.3,1.685-3.481,3.144-5.484,2.789s-2.077-2.4-1.8-4.062a3.7,3.7,0,1,1,7.281,1.273Z" transform="translate(-551.962 -170.966)"/>
        <path id="Tracé_15" data-name="Tracé 15" d="M618.013,184.6c.3-1.684-2.209-4.136-4.23-4.492-2-.356-2.77,1.535-3.069,3.219a3.7,3.7,0,1,0,7.3,1.273Z" transform="translate(-599.682 -178.364)"/>
      </g>
    </g>
    <path id="Tracé_16" data-name="Tracé 16" d="M583.626,209.5c.412,0,.674.88.749,1.853.037.543.262.936.318,1.984.019.374-.393,1.684-.9,1.628-.318-.037-.487-.15-1.16-.58a.539.539,0,0,0-.3-.056c-.281.056-.9.393-1.1.337-.356-.094-.693-.356-.6-1.329C580.725,212.57,582.316,209.5,583.626,209.5Z" transform="translate(-571.468 -195.068)"/>
  </g>
</svg>
