<?xml version="1.0" encoding="UTF-8"?>
<svg width="530px" height="547px" viewBox="0 0 530 547" version="1.1" xmlns="http://www.w3.org/2000/svg" xmlns:xlink="http://www.w3.org/1999/xlink">
    <!-- Generator: Sketch 50.2 (55047) - http://www.bohemiancoding.com/sketch -->
    <title>test</title>
    <desc>Created with Sketch.</desc>
    <defs></defs>
    <g id="Page-1" stroke="none" stroke-width="1" fill="none" fill-rule="evenodd">
        <g id="test" fill-rule="nonzero">
            <path d="M307.036,0 C342.864,0 375.509,7.166 405.236,21.763 C434.051208,35.4385046 459.305174,55.6057373 479.016,80.682 C498.655,105.629 512.716,134.292 521.48,167.202 C530.244,200.112 531.564,235.144 525.461,272.302 C519.623,309.193 506.883,344.225 487.775,377.665 C469.224941,410.320198 445.570787,439.797921 417.709,464.981 C390.303812,489.741251 359.012435,509.825018 325.088,524.428 C291.116,539.028 256.082,546.456 220.254,546.456 C184.426,546.456 151.78,539.025 122.587,524.428 C93.9217183,510.394069 68.7923967,490.073145 49.071,464.979 C29.431,440.031 15.365,411.103 7.138,377.663 C-1.089,344.223 -2.153,309.19 3.688,272.3 C9.58621458,235.338846 22.0816495,199.73922 40.578,167.2 C58.8137274,134.862774 82.1084481,105.653219 109.578,80.68 C136.676509,55.9127911 167.827274,35.9834591 201.672,21.761 C236.174,7.166 271.206,0 307.036,0 Z M238.299,433.661 C258.874876,433.631359 279.216368,429.291836 298.013,420.922 C317.386,412.429 282.352,325.603 298.013,310.741 C313.67,296.141 379.491,354.572 390.372,334.933 C401.219386,315.482534 408.58417,294.28602 412.134,272.3 C415.584,250.007 415.053,228.775 410.542,209.135 C406.031,189.495 398.336,172.244 386.921,157.647 C375.796256,143.097892 361.560205,131.219312 345.254,122.88 C328.533333,114.387333 309.955333,110.141 289.52,110.141 C269.029911,110.171383 248.77537,114.51169 230.072,122.88 C210.776001,131.379118 193.089139,143.140253 177.788,157.647 C161.88589,172.602718 148.450128,189.980208 137.979,209.135 C127.126149,228.77307 119.761989,250.144866 116.214,272.3 C112.764,294.594 206.033,291.368 210.544,310.742 C215.055,330.116 213.195,327.958 224.607,342.82 C235.754,357.42 166.375,412.43 182.83,420.92 C199.549,429.415 217.863,433.661 238.299,433.661 Z" id="Tracé_10" fill="#000000"></path>
            <path d="M252.158,487.295 C242.87563,487.242981 233.617203,486.347296 224.497,484.619 C211.791805,482.209322 199.431989,478.243097 187.697,472.81 C176.222259,467.484336 165.472728,460.71854 155.708,452.676 C153.229,432.443 147.082,383.184 143.545,362.801 C141.911191,354.504636 138.667401,346.608854 133.997,339.56 C131.381056,335.584913 128.018979,332.154915 124.097,329.46 C120.048794,326.732237 115.278462,325.275022 110.397,325.275 C108.426767,325.28281 106.462752,325.496639 104.537,325.913 C101.243829,327.595099 98.3431649,329.953933 96.025,332.835 C94.053,315.235 94.687,298.796 97.904,283.98 C102.962641,262.418928 110.068557,241.390158 119.125,221.18 C123.934153,210.40222 129.317885,199.890123 135.253,189.689 C141.184114,179.479669 147.764303,169.661493 154.953,160.295 C170.2,140.54 186.953,125.055 204.747,114.271 C214.11236,108.546881 224.172173,104.045607 234.681,100.877 C245.452068,97.6767109 256.629552,96.0518749 267.866,96.053 C275.036839,96.0663339 282.193234,96.6966587 289.256,97.937 C289.646667,98.0571485 290.046255,98.1460946 290.451,98.203 C290.854993,98.2599564 291.253886,98.3485623 291.644,98.468 C304.297147,100.911477 316.682747,104.579399 328.626,109.42 C340.351816,114.165177 351.587535,120.041256 362.174,126.965 C372.506526,133.713308 382.114494,141.510671 390.845,150.233 C399.347834,158.719786 406.847963,168.154924 413.198,178.353 C424.018113,195.270266 431.171936,214.267754 434.198,234.12 C437.135789,254.395776 435.951138,275.055917 430.715,294.863 C426.464602,311.447544 420.954256,327.683389 414.232,343.429 C408.091017,357.888614 400.974626,371.91425 392.932,385.409 C392.087949,382.595082 390.813899,379.928584 389.155,377.504 C388.495102,376.520055 387.747376,375.59795 386.921,374.749 C382.947566,372.117284 378.296727,370.693203 373.531,370.649 C369.54223,370.702394 365.613286,371.626611 362.019,373.357 C358.370329,375.097383 354.979605,377.333524 351.943,380.002 C349.018702,382.536295 346.337093,385.337755 343.933,388.37 C341.939315,390.837766 340.161122,393.472101 338.618,396.244 C328.499,414.794 305.918,459.783 296.675,478.264 C282.622778,484.328701 267.462693,487.404172 252.158,487.295 Z" id="Soustraction_2" fill="#FFFFFF"></path>
            <path d="M264.04,378.194 C259.53,377.662 257.14,376.07 247.587,369.966 C246.277132,369.296093 244.801804,369.018319 243.338,369.166 C239.359,369.966 230.601,374.74 227.68,373.944 C222.638,372.616 217.86,368.901 219.187,355.1 C220.515,344.219 243.073,300.693 261.651,300.693 C267.49,300.693 271.206,313.167 272.267,326.967 C272.799,334.667 275.982,340.238 276.778,355.1 C277.039,360.3 271.448,378.214 264.486,378.215 C264.33706,378.216245 264.188165,378.209234 264.04,378.194 Z M342.067,329.626 C313.404,324.584 295.091,292.735 299.338,268.85 C303.585,244.965 314.465,218.159 342.862,223.201 C371.525,228.244 407.088,263.011 402.844,286.901 C399.21,308.463 375.45,330.246 349.533,330.246 C347.031832,330.245412 344.534995,330.038039 342.068,329.626 L342.067,329.626 Z M170.087,299.37 C141.687,294.327 140.629,265.399 144.611,241.778 C148.857,217.892 176.724,194.272 205.386,199.048 C233.786,204.091 252.096,236.204 247.849,259.824 C244.038,281.261 207.308,300.132 179.287,300.132 C176.204328,300.147442 173.126228,299.892802 170.088,299.371 L170.087,299.37 Z" id="Union_4" fill="#000000"></path>
        </g>
    </g>
</svg>