<?xml version="1.0" encoding="UTF-8"?>
<svg width="36px" height="36px" viewBox="0 0 36 36" version="1.1" xmlns="http://www.w3.org/2000/svg" xmlns:xlink="http://www.w3.org/1999/xlink">
    <!-- Generator: Sketch 50.2 (55047) - http://www.bohemiancoding.com/sketch -->
    <title>icon--twoWaystripYellow</title>
    <desc>Created with Sketch.</desc>
    <defs></defs>
    <g id="Page-1" stroke="none" stroke-width="1" fill="none" fill-rule="evenodd">
        <g id="icon--twoWaystripYellow" fill-rule="nonzero">
            <circle id="Ellipse_1-2" fill="#A5B1C2" cx="17.595" cy="17.595" r="17.594"></circle>
            <path d="M24.318,20.366 C24.5941424,20.366 24.818,20.5898576 24.818,20.866 C24.818,21.1421424 24.5941424,21.366 24.318,21.366 L12.1128388,21.366 L14.3376115,23.5915048 C14.5328416,23.786799 14.5327895,24.1033815 14.3374952,24.2986115 C14.142201,24.4938416 13.8256185,24.4937895 13.6303885,24.2984952 L10.5913885,21.2584952 C10.4913446,21.1584184 10.4425801,21.0264902 10.4450923,20.8953627 C10.4361965,20.7611885 10.4810673,20.6213948 10.5937372,20.5101708 L13.6327372,17.5101708 C14.1056467,17.0433302 14.8074382,17.7496686 14.3375534,18.2195534 L12.1911068,20.366 L24.318,20.366 Z" id="Tracé_27" fill="#2D2D2D"></path>
            <path d="M20.9254466,10.9255534 C20.4555618,10.4556686 21.1573533,9.74933021 21.6302628,10.2161708 L24.6692628,13.2161708 C24.7819327,13.3273948 24.8268035,13.4671885 24.8179077,13.6013627 C24.8204199,13.7324902 24.7716554,13.8644184 24.6716115,13.9644952 L21.6326115,17.0044952 C21.4373815,17.1997895 21.120799,17.1998416 20.9255048,17.0046115 C20.7302105,16.8093815 20.7301584,16.492799 20.9253885,16.2975048 L23.1501612,14.072 L10.945,14.072 C10.6688576,14.072 10.445,13.8481424 10.445,13.572 C10.445,13.2958576 10.6688576,13.072 10.945,13.072 L23.0718932,13.072 L20.9254466,10.9255534 Z" id="Tracé_28" fill="#2D2D2D"></path>
        </g>
    </g>
</svg>