<?xml version="1.0" encoding="UTF-8"?>
<svg width="240px" height="369px" viewBox="0 0 240 369" version="1.1" xmlns="http://www.w3.org/2000/svg" xmlns:xlink="http://www.w3.org/1999/xlink">
    <!-- Generator: Sketch 50.2 (55047) - http://www.bohemiancoding.com/sketch -->
    <title>icon--numberInputWhite</title>
    <desc>Created with Sketch.</desc>
    <defs></defs>
    <g id="Page-1" stroke="none" stroke-width="1" fill="none" fill-rule="evenodd">
        <g id="icon--numberInputWhite" fill="#A5B1C2" fill-rule="nonzero">
            <path d="M14.9542717,134.576989 L224.295254,134.576989 C228.345199,134.576989 231.85095,133.098256 234.809235,130.138335 C237.765883,127.179232 239.250344,123.675117 239.250344,119.625172 C239.250344,115.575227 237.766701,112.072749 234.809235,109.109555 L130.138335,4.43865437 C127.180868,1.4828248 123.677572,0 119.625172,0 C115.572772,0 112.069476,1.4828248 109.109555,4.43865437 L4.43865437,109.109555 C1.47873312,112.069476 0,115.575227 0,119.625172 C0,123.674299 1.47873312,127.179232 4.43865437,130.138335 C7.40184896,133.098256 10.9051453,134.576989 14.9542717,134.576989 Z" id="Shape"></path>
            <path d="M224.572999,234.548 L15.4241831,234.548 C11.3755033,234.548 7.87542284,236.026193 4.91821868,238.980127 C1.96101452,241.937331 0.483638818,245.437412 0.483638818,249.483639 C0.483638818,253.529866 1.96101452,257.032399 4.91821868,259.987968 L109.493036,364.56115 C112.45351,367.518354 115.95359,368.999 119.999,368.999 C124.04441,368.999 127.54776,367.518354 130.502512,364.56115 L235.077329,259.987151 C238.031262,257.032399 239.514361,253.529866 239.514361,249.482821 C239.514361,245.437412 238.03208,241.937331 235.077329,238.97931 C232.122577,236.022923 228.619226,234.548 224.572999,234.548 Z" id="Shape"></path>
        </g>
    </g>
</svg>