<svg id="White" xmlns="http://www.w3.org/2000/svg" xmlns:xlink="http://www.w3.org/1999/xlink" width="203.37" height="68.876" viewBox="0 0 203.37 68.876">
  <defs>
    <clipPath id="clip-path">
      <rect width="203.37" height="68.876" fill="none"/>
    </clipPath>
  </defs>
  <g id="rtour-white-wBck" clip-path="url(#clip-path)">
    <g id="background" transform="translate(7.874 2.638)">
      <path id="Tracé_19" data-name="Tracé 19" d="M45.3,17.938A19.288,19.288,0,0,1,50.636,16.2l-1.2,2.364Z" transform="translate(-45.3 -16.2)" fill="#0a2328"/>
      <path id="Tracé_20" data-name="Tracé 20" d="M46.3,368.682a20.345,20.345,0,0,0,5.51,1.738l-1.721-2.52Z" transform="translate(-46.126 -306.767)" fill="#0a2328"/>
      <path id="Tracé_21" data-name="Tracé 21" d="M1097.51,368.682a20.344,20.344,0,0,1-5.51,1.738l1.721-2.52Z" transform="translate(-910.062 -306.767)" fill="#0a2328"/>
      <path id="Tracé_22" data-name="Tracé 22" d="M1098.51,17.938A20.344,20.344,0,0,0,1093,16.2l1.721,2.52Z" transform="translate(-910.888 -16.2)" fill="#0a2328"/>
      <path id="Tracé_18" data-name="Tracé 18" d="M191.637,65.925c15.644,5.3-195.548,5.3-179.9,0C-3.911,71.227-3.911-.3,11.733,5-3.911-.3,207.281-.3,191.637,5,207.281-.3,207.281,71.227,191.637,65.925Z" transform="translate(-7.874 -3.663)" fill="#0a2328"/>
    </g>
    <g id="typo" transform="translate(21.762 7.904)">
      <path id="last-R" d="M900.933,109.325a10.829,10.829,0,0,1-.956,3.146,13.01,13.01,0,0,1-4.085,4.937,13.287,13.287,0,0,1-2.781,1.547l5.2,14.636h-8.656l-4.5-13.906h-3.32l-2.207,13.975H872.2L877.658,99h14.949a8.528,8.528,0,0,1,3.737.8,8.119,8.119,0,0,1,4.45,5.475A10.146,10.146,0,0,1,900.933,109.325ZM889.5,112.94a3.441,3.441,0,0,0,1.391-.3,4.537,4.537,0,0,0,1.217-.782,4.187,4.187,0,0,0,.921-1.147,4,4,0,0,0,.469-1.391,3.05,3.05,0,0,0-.609-2.52,2.789,2.789,0,0,0-2.277-1.043H884l-1.13,7.179Z" transform="translate(-742.356 -89.874)" fill="#fff"/>
      <path id="U" d="M726.609,119.685c.07-.417.156-1.043.3-1.877.122-.834.278-1.773.435-2.816s.348-2.173.539-3.372.4-2.4.591-3.563c.417-2.764.886-5.788,1.425-9.039h7.387q-.887,5.527-1.617,10.064c-.191,1.3-.4,2.607-.608,3.894s-.4,2.486-.591,3.6c-.174,1.112-.33,2.068-.469,2.885-.122.817-.209,1.391-.243,1.7a13.434,13.434,0,0,1-1.86,4.989,17.379,17.379,0,0,1-8.4,7.092A14.652,14.652,0,0,1,718,134.32a11.857,11.857,0,0,1-5.076-1.078,11.485,11.485,0,0,1-3.859-2.885,10.8,10.8,0,0,1-2.242-4.206,11.7,11.7,0,0,1-.3-4.989c.07-.365.156-.956.3-1.79.122-.834.278-1.808.469-2.9.174-1.112.365-2.312.591-3.6.209-1.286.417-2.59.608-3.894.487-3.024,1.008-6.362,1.564-9.977h7.387q-.782,5.084-1.46,9.282c-.191,1.2-.4,2.416-.591,3.615s-.382,2.329-.539,3.355-.313,1.929-.435,2.712-.209,1.356-.243,1.7a7.755,7.755,0,0,0,.017,2.764,6.17,6.17,0,0,0,.956,2.294,4.9,4.9,0,0,0,1.738,1.582,4.78,4.78,0,0,0,2.329.591,5.661,5.661,0,0,0,2.538-.591,7.886,7.886,0,0,0,2.225-1.582,9.852,9.852,0,0,0,1.7-2.294A8.831,8.831,0,0,0,726.609,119.685Z" transform="translate(-605.369 -89.874)" fill="#fff"/>
      <g id="O" transform="translate(70.665 14.93)">
        <path id="Tracé_27" data-name="Tracé 27" d="M518.22,96.2a14.368,14.368,0,0,1,6.431,1.425,13.519,13.519,0,0,1,4.832,3.859,15.433,15.433,0,0,1,2.781,5.667,16.26,16.26,0,0,1,.261,6.883,20.183,20.183,0,0,1-2.468,6.9,23.064,23.064,0,0,1-4.589,5.719,22.057,22.057,0,0,1-6.066,3.894,17.259,17.259,0,0,1-6.866,1.443,14.124,14.124,0,0,1-6.4-1.443,13.893,13.893,0,0,1-4.815-3.894,14.833,14.833,0,0,1-2.746-5.719,17.286,17.286,0,0,1-.226-6.9,20.448,20.448,0,0,1,2.416-6.883,22.78,22.78,0,0,1,4.519-5.667,21,21,0,0,1,6.032-3.859A17.528,17.528,0,0,1,518.22,96.2Zm-4.5,28.4a9.649,9.649,0,0,0,3.911-.834,11.863,11.863,0,0,0,3.442-2.277,13.463,13.463,0,0,0,2.607-3.355,12.514,12.514,0,0,0,1.425-4.1,10.947,10.947,0,0,0-.1-4.137,8.464,8.464,0,0,0-1.547-3.372,8.048,8.048,0,0,0-2.729-2.277,7.943,7.943,0,0,0-3.65-.834,9.568,9.568,0,0,0-3.894.834,12.017,12.017,0,0,0-3.424,2.277,13.554,13.554,0,0,0-2.607,3.372,12.711,12.711,0,0,0-1.425,4.137,10.756,10.756,0,0,0,.1,4.1,8.615,8.615,0,0,0,1.547,3.355,7.988,7.988,0,0,0,2.712,2.277A7.871,7.871,0,0,0,513.719,124.6Z" transform="translate(-503.957 -102.491)" fill="#fff"/>
        <g id="skull">
          <path id="Tracé_28" data-name="Tracé 28" d="M546.757,132.548c-.052-.017-.1-.017-.156-.035-6.883-1.2-11.246,6.605-12.532,12.185a12.867,12.867,0,0,0,1.773,8.761,9.783,9.783,0,0,0,6.518,4.38c3.337.608,5.753-.33,8.656-3.39a20.432,20.432,0,0,0,4.85-9.039,9.517,9.517,0,0,0-1.147-7.631A12.09,12.09,0,0,0,546.757,132.548Z" transform="translate(-533.501 -132.39)" fill="#1a1a1a"/>
          <path id="Tracé_29" data-name="Tracé 29" d="M536.165,227.7s-.574-4.78-.869-6.484c-.156-.852-.921-2.764-2.555-2.416,0,0-1.651.73-.713,3.129l1.721,3.529Z" transform="translate(-531.74 -203.747)" fill="#fff"/>
          <path id="Tracé_30" data-name="Tracé 30" d="M608.6,243.355s2.138-4.293,2.972-5.823c.417-.765,1.773-2.294,3.164-1.408,0,0,1.286,1.234-.382,3.181l-2.781,2.746Z" transform="translate(-595.24 -217.872)" fill="#fff"/>
          <path id="Tracé_31" data-name="Tracé 31" d="M558.835,174.987c-.278,1.564-3.233,2.92-5.093,2.59s-1.929-2.225-1.669-3.772a3.432,3.432,0,1,1,6.762,1.182Z" transform="translate(-548.447 -164.261)" fill="#fff"/>
          <path id="Tracé_32" data-name="Tracé 32" d="M617.489,184.28c.278-1.564-2.051-3.841-3.928-4.172-1.86-.33-2.573,1.425-2.851,2.99a3.441,3.441,0,0,0,6.779,1.182Z" transform="translate(-596.95 -171.78)" fill="#fff"/>
          <path id="Tracé_33" data-name="Tracé 33" d="M583.411,209.5c.382,0,.626.817.7,1.721.035.5.243.869.3,1.842.017.348-.365,1.564-.834,1.512-.3-.035-.452-.139-1.078-.539a.5.5,0,0,0-.278-.052c-.261.052-.834.365-1.026.313-.33-.087-.643-.33-.556-1.234C580.717,212.351,582.195,209.5,583.411,209.5Z" transform="translate(-572.12 -196.097)" fill="#fff"/>
        </g>
      </g>
      <path id="T" d="M355.878,99H380.96l-1.078,6.744h-8.847l-4.4,27.916H359.25l4.4-27.916H354.8Z" transform="translate(-314.891 -89.874)" fill="#fff"/>
      <path id="first-R" d="M153.933,109.325a10.829,10.829,0,0,1-.956,3.146,13.011,13.011,0,0,1-4.085,4.937,13.29,13.29,0,0,1-2.781,1.547l5.2,14.636h-8.656l-4.5-13.906h-3.32l-2.208,13.975H125.2L130.658,99h14.949a8.529,8.529,0,0,1,3.737.8,8.119,8.119,0,0,1,4.45,5.475A10.148,10.148,0,0,1,153.933,109.325ZM142.5,112.94a3.442,3.442,0,0,0,1.391-.3,4.541,4.541,0,0,0,1.217-.782,4.186,4.186,0,0,0,.921-1.147,3.992,3.992,0,0,0,.469-1.391,3.05,3.05,0,0,0-.608-2.52,2.79,2.79,0,0,0-2.277-1.043H137l-1.13,7.179Z" transform="translate(-125.2 -89.874)" fill="#fff"/>
      <path id="flash" d="M311.327,46.5l-2.347,4.937h1.756L307.5,58.059H306.06l.886-4.9H305l1.182-6.657Z" transform="translate(-273.747 -46.5)" fill="#ffef04"/>
    </g>
  </g>
</svg>
